<svg width="211" height="45" viewBox="0 0 211 45" fill="none" xmlns="http://www.w3.org/2000/svg">
<path d="M22.5 43C33.8218 43 43 33.8218 43 22.5C43 11.1782 33.8218 2 22.5 2C11.1782 2 2 11.1782 2 22.5C2 33.8218 11.1782 43 22.5 43Z" stroke="#FACC15" stroke-width="3"/>
<path d="M22.5 34.8C29.2931 34.8 34.8 29.2931 34.8 22.5C34.8 15.7069 29.2931 10.2 22.5 10.2C15.7069 10.2 10.2 15.7069 10.2 22.5C10.2 29.2931 15.7069 34.8 22.5 34.8Z" stroke="#FACC15" stroke-width="3"/>
<path d="M22.5 26.6C24.7644 26.6 26.6 24.7644 26.6 22.5C26.6 20.2357 24.7644 18.4 22.5 18.4C20.2356 18.4 18.4 20.2357 18.4 22.5C18.4 24.7644 20.2356 26.6 22.5 26.6Z" stroke="#FACC15" stroke-width="3"/>
<path d="M31.2467 13.7534L40.54 4.46002" stroke="#FACC15" stroke-width="3" stroke-linecap="round"/>
<path d="M30.7 14.3L31.7933 13.2067" stroke="#FACC15" stroke-width="7" stroke-linecap="square"/>
<path d="M49.355 37.26V7.19336H56.2567C57.4525 7.19336 58.4433 7.37558 59.2292 7.74003C60.0264 8.10447 60.6528 8.64544 61.1083 9.36294C61.5639 10.0804 61.8885 10.9688 62.0821 12.0279C62.2757 13.0757 62.3725 14.2886 62.3725 15.6667V16.2988C62.3725 18.2349 62.2017 19.8863 61.86 21.2529C61.5297 22.6082 60.9318 23.6389 60.0662 24.345C59.2007 25.0511 57.9821 25.4042 56.4104 25.4042H53.9333V37.26H49.355ZM53.9333 21.6288H55.505C56.1769 21.6288 56.6781 21.4579 57.0083 21.1163C57.3386 20.7746 57.555 20.2109 57.6575 19.425C57.7714 18.6278 57.8283 17.5686 57.8283 16.2475V15.6667C57.8169 14.0381 57.6746 12.8081 57.4012 11.9767C57.1279 11.1339 56.5072 10.7125 55.5392 10.7125H53.9333V21.6288Z" fill="#FACC15"/>
<path d="M64.0822 37.26V7.19336H68.6605V33.365H74.4518V37.26H64.0822Z" fill="#FACC15"/>
<path d="M73.7527 37.26L78.0406 7.19336H84.0881L88.6494 37.26H84.3786L83.6611 31.8959H78.8094L78.1602 37.26H73.7527ZM79.2536 28.2229H83.1827L81.1669 13.1213H81.0986L79.2536 28.2229Z" fill="#FACC15"/>
<path d="M90.7008 37.26V11.1567H87.1816V7.19336H98.6445V11.1567H95.262V37.26H90.7008Z" fill="#FACC15"/>
<path d="M101.396 37.26V11.1567H97.8771V7.19336H109.34V11.1567H105.958V37.26H101.396Z" fill="#FACC15"/>
<path d="M110.52 37.26V7.19336H120.599V11.1396H115.098V19.8863H120.326V23.7471H115.098V33.3138H120.804V37.26H110.52Z" fill="#FACC15"/>
<path d="M122.787 37.26V7.19336H130.355C131.927 7.19336 133.1 7.50086 133.874 8.11586C134.649 8.73086 135.156 9.63058 135.395 10.815C135.645 11.9995 135.771 13.4459 135.771 15.1542C135.771 16.9195 135.588 18.3089 135.224 19.3225C134.871 20.3247 134.142 20.9967 133.037 21.3384C133.561 21.4295 134 21.6459 134.353 21.9875C134.706 22.3178 134.991 22.8075 135.207 23.4567C135.423 24.0945 135.577 24.9202 135.668 25.9338C135.771 26.936 135.822 28.166 135.822 29.6238C135.822 29.7377 135.822 30.0566 135.822 30.5804C135.822 31.1043 135.822 31.725 135.822 32.4425C135.833 33.1486 135.845 33.8547 135.856 34.5609C135.867 35.267 135.885 35.8706 135.907 36.3717C135.93 36.8728 135.959 37.1689 135.993 37.26H131.414C131.38 37.2031 131.352 36.9127 131.329 36.3888C131.318 35.8535 131.301 35.1759 131.278 34.3559C131.266 33.5359 131.255 32.6532 131.244 31.7079C131.244 30.7627 131.244 29.8345 131.244 28.9234C131.244 28.0009 131.244 27.1866 131.244 26.4804C131.244 25.5807 131.175 24.9031 131.039 24.4475C130.913 23.9806 130.674 23.656 130.321 23.4738C129.979 23.2916 129.484 23.1834 128.835 23.1492L127.366 23.0638V37.26H122.787ZM127.383 19.5104H129.211C129.769 19.5104 130.19 19.3852 130.475 19.1346C130.771 18.8841 130.97 18.4228 131.073 17.7509C131.187 17.0789 131.244 16.1109 131.244 14.8467V14.6588C131.244 13.5996 131.192 12.7853 131.09 12.2159C130.987 11.6464 130.771 11.2535 130.441 11.0371C130.122 10.8207 129.621 10.7125 128.937 10.7125H127.383V19.5104Z" fill="#FACC15"/>
<path d="M143.222 37.26V7.19336H150.123C151.319 7.19336 152.31 7.37558 153.096 7.74003C153.893 8.10447 154.52 8.64544 154.975 9.36294C155.431 10.0804 155.755 10.9688 155.949 12.0279C156.142 13.0757 156.239 14.2886 156.239 15.6667V16.2988C156.239 18.2349 156.068 19.8863 155.727 21.2529C155.396 22.6082 154.799 23.6389 153.933 24.345C153.067 25.0511 151.849 25.4042 150.277 25.4042H147.8V37.26H143.222ZM147.8 21.6288H149.372C150.044 21.6288 150.545 21.4579 150.875 21.1163C151.205 20.7746 151.422 20.2109 151.524 19.425C151.638 18.6278 151.695 17.5686 151.695 16.2475V15.6667C151.684 14.0381 151.541 12.8081 151.268 11.9767C150.995 11.1339 150.374 10.7125 149.406 10.7125H147.8V21.6288Z" fill="#FACC15"/>
<path d="M155.66 37.26L159.948 7.19336H165.995L170.556 37.26H166.286L165.568 31.8959H160.716L160.067 37.26H155.66ZM161.161 28.2229H165.09L163.074 13.1213H163.006L161.161 28.2229Z" fill="#FACC15"/>
<path d="M171.89 37.26V7.19336H179.458C181.03 7.19336 182.203 7.50086 182.977 8.11586C183.752 8.73086 184.259 9.63058 184.498 10.815C184.748 11.9995 184.874 13.4459 184.874 15.1542C184.874 16.9195 184.691 18.3089 184.327 19.3225C183.974 20.3247 183.245 20.9967 182.14 21.3384C182.664 21.4295 183.103 21.6459 183.456 21.9875C183.809 22.3178 184.094 22.8075 184.31 23.4567C184.526 24.0945 184.68 24.9202 184.771 25.9338C184.874 26.936 184.925 28.166 184.925 29.6238C184.925 29.7377 184.925 30.0566 184.925 30.5804C184.925 31.1043 184.925 31.725 184.925 32.4425C184.936 33.1486 184.948 33.8547 184.959 34.5609C184.97 35.267 184.988 35.8706 185.01 36.3717C185.033 36.8728 185.062 37.1689 185.096 37.26H180.517C180.483 37.2031 180.455 36.9127 180.432 36.3888C180.421 35.8535 180.404 35.1759 180.381 34.3559C180.369 33.5359 180.358 32.6532 180.347 31.7079C180.347 30.7627 180.347 29.8345 180.347 28.9234C180.347 28.0009 180.347 27.1866 180.347 26.4804C180.347 25.5807 180.278 24.9031 180.142 24.4475C180.016 23.9806 179.777 23.656 179.424 23.4738C179.082 23.2916 178.587 23.1834 177.938 23.1492L176.469 23.0638V37.26H171.89ZM176.486 19.5104H178.314C178.872 19.5104 179.293 19.3852 179.578 19.1346C179.874 18.8841 180.073 18.4228 180.176 17.7509C180.29 17.0789 180.347 16.1109 180.347 14.8467V14.6588C180.347 13.5996 180.295 12.7853 180.193 12.2159C180.09 11.6464 179.874 11.2535 179.544 11.0371C179.225 10.8207 178.724 10.7125 178.04 10.7125H176.486V19.5104Z" fill="#FACC15"/>
<path d="M189.009 37.26V11.1567H185.49V7.19336H196.953V11.1567H193.57V37.26H189.009Z" fill="#FACC15"/>
<path d="M201.208 37.26V25.2504L196.168 7.19336H200.542L203.514 18.4342H203.583L206.231 7.19336H210.587L205.786 25.2504V37.26H201.208Z" fill="#FACC15"/>
</svg>
