<svg width="241" height="48" viewBox="0 0 241 48" fill="none" xmlns="http://www.w3.org/2000/svg">
<path d="M23.4431 43.6407C34.2325 43.6407 42.979 34.8942 42.979 24.1048C42.979 13.3154 34.2325 4.56885 23.4431 4.56885C12.6537 4.56885 3.9072 13.3154 3.9072 24.1048C3.9072 34.8942 12.6537 43.6407 23.4431 43.6407Z" stroke="white" stroke-width="3"/>
<path d="M23.4431 35.8263C29.9167 35.8263 35.1647 30.5784 35.1647 24.1048C35.1647 17.6311 29.9167 12.3832 23.4431 12.3832C16.9695 12.3832 11.7216 17.6311 11.7216 24.1048C11.7216 30.5784 16.9695 35.8263 23.4431 35.8263Z" stroke="white" stroke-width="3"/>
<path d="M23.4431 28.012C25.601 28.012 27.3503 26.2626 27.3503 24.1048C27.3503 21.9469 25.601 20.1976 23.4431 20.1976C21.2852 20.1976 19.5359 21.9469 19.5359 24.1048C19.5359 26.2626 21.2852 28.012 23.4431 28.012Z" stroke="white" stroke-width="3"/>
<path d="M31.7784 15.7694L40.6347 6.91316" stroke="white" stroke-width="2" stroke-linecap="round"/>
<path d="M31.2575 16.2904L32.2994 15.2485" stroke="white" stroke-width="5" stroke-linecap="square"/>
<path d="M49.2061 14.8171H57.9362C59.5479 14.8089 60.9358 14.9514 62.0998 15.2444C63.272 15.5293 64.2366 15.9404 64.9936 16.4776C65.7506 17.0149 66.3082 17.662 66.6663 18.419C67.0326 19.1679 67.2158 20.0022 67.2158 20.922C67.2158 21.7279 67.0448 22.5012 66.703 23.2419C66.3692 23.9745 65.8483 24.6217 65.1401 25.1833C64.4401 25.745 63.5447 26.1927 62.4539 26.5264C61.3713 26.8602 60.0811 27.027 58.5833 27.027H56.2635V32.9611H49.2061V14.8171ZM56.2635 24.3653C56.8251 24.3571 57.3257 24.2716 57.7653 24.1088C58.2048 23.9379 58.5752 23.7059 58.8764 23.4129C59.1776 23.1117 59.4055 22.7535 59.5601 22.3384C59.7229 21.9151 59.8043 21.443 59.8043 20.922C59.8043 20.4092 59.7229 19.9453 59.5601 19.5301C59.3973 19.115 59.1613 18.7609 58.852 18.4678C58.5508 18.1667 58.1804 17.9306 57.7409 17.7597C57.3094 17.5887 56.817 17.4951 56.2635 17.4788V24.3653Z" fill="white"/>
<path d="M69.5235 12.8024H76.1535V32.9611H69.5235V12.8024Z" fill="white"/>
<path d="M78.7908 29.1516C78.7908 28.5655 78.9211 28.0201 79.1815 27.5154C79.442 27.0107 79.8164 26.5712 80.3048 26.1967C80.7932 25.8223 81.3834 25.5293 82.0753 25.3176C82.7672 25.0978 83.5405 24.988 84.3952 24.988C85.2499 24.988 86.0476 25.0897 86.7883 25.2932C87.5372 25.4886 88.164 25.7409 88.6687 26.0502V25.9525C88.6687 25.3827 88.6035 24.8984 88.4733 24.4996C88.3512 24.1007 88.1599 23.7751 87.8994 23.5228C87.639 23.2704 87.3052 23.0873 86.8982 22.9733C86.4994 22.8594 86.0272 22.8024 85.4819 22.8024C84.9853 22.8024 84.4725 22.8471 83.9434 22.9367C83.4143 23.0181 82.9259 23.1402 82.4782 23.303L81.5869 21.6546C82.4741 21.2883 83.3899 21.0279 84.3341 20.8732C85.2865 20.7104 86.2674 20.629 87.2767 20.629C88.571 20.629 89.7147 20.7552 90.7077 21.0075C91.7089 21.2517 92.5474 21.6221 93.223 22.1186C93.9067 22.607 94.4236 23.2257 94.7736 23.9745C95.1237 24.7153 95.2987 25.5862 95.2987 26.5875V32.9611H89.1082L88.6931 31.7889C88.4489 31.9761 88.1599 32.1552 87.8262 32.3261C87.4924 32.4971 87.1261 32.6477 86.7273 32.7779C86.3284 32.9081 85.9051 33.0099 85.4574 33.0832C85.0097 33.1564 84.5417 33.193 84.0533 33.193C83.2556 33.193 82.5311 33.0913 81.8799 32.8878C81.2369 32.6762 80.6874 32.3913 80.2316 32.0331C79.7757 31.6749 79.4217 31.2517 79.1693 30.7633C78.917 30.2667 78.7908 29.7295 78.7908 29.1516ZM85.6284 28.8951C85.6284 29.3347 85.7708 29.6929 86.0557 29.9696C86.3406 30.2382 86.7232 30.3725 87.2035 30.3725C87.4639 30.3725 87.7204 30.3318 87.9727 30.2504C88.225 30.1609 88.457 30.0307 88.6687 29.8597V27.7962C88.2617 27.552 87.814 27.4299 87.3256 27.4299C86.7721 27.4299 86.3488 27.5683 86.0557 27.8451C85.7708 28.1137 85.6284 28.4637 85.6284 28.8951Z" fill="white"/>
<path d="M99.3035 22.8756H97.936V20.861H99.3035V16.8317H105.934V20.861H109.12L107.875 22.8756H105.934V28.3579C105.934 29.1882 106.117 29.8272 106.483 30.2749C106.857 30.7226 107.391 30.9464 108.082 30.9464L107.325 32.6192C106.902 32.7983 106.45 32.9366 105.97 33.0343C105.498 33.1401 104.949 33.193 104.322 33.193C103.443 33.193 102.686 33.0832 102.051 32.8634C101.416 32.6355 100.895 32.3139 100.488 31.8988C100.081 31.4837 99.7797 30.9749 99.5844 30.3725C99.3971 29.7702 99.3035 29.0905 99.3035 28.3335V22.8756Z" fill="white"/>
<path d="M111.782 22.8756H110.415V20.861H111.782V16.8317H118.412V20.861H121.599L120.353 22.8756H118.412V28.3579C118.412 29.1882 118.595 29.8272 118.962 30.2749C119.336 30.7226 119.869 30.9464 120.561 30.9464L119.804 32.6192C119.381 32.7983 118.929 32.9366 118.449 33.0343C117.977 33.1401 117.427 33.193 116.8 33.193C115.921 33.193 115.164 33.0832 114.529 32.8634C113.894 32.6355 113.373 32.3139 112.966 31.8988C112.559 31.4837 112.258 30.9749 112.063 30.3725C111.876 29.7702 111.782 29.0905 111.782 28.3335V22.8756Z" fill="white"/>
<path d="M122.771 26.8439C122.771 26.1438 122.881 25.5048 123.101 24.9269C123.321 24.349 123.622 23.8321 124.004 23.3762C124.395 22.9123 124.855 22.5093 125.384 22.1675C125.913 21.8256 126.487 21.5407 127.106 21.3128C127.724 21.0848 128.371 20.9139 129.047 20.7999C129.723 20.686 130.406 20.629 131.098 20.629C132.01 20.629 132.836 20.7226 133.577 20.9098C134.326 21.0889 134.989 21.3372 135.567 21.6546C136.153 21.9721 136.658 22.3425 137.081 22.7657C137.513 23.189 137.867 23.6408 138.143 24.1211C138.428 24.5932 138.636 25.0816 138.766 25.5862C138.904 26.0909 138.974 26.5834 138.974 27.0637L129.743 28.1748C129.922 29.0783 130.28 29.7783 130.817 30.2749C131.355 30.7714 132.108 31.0197 133.076 31.0197C133.605 31.0197 134.098 30.9546 134.554 30.8243C135.018 30.6941 135.38 30.5353 135.64 30.3481L136.617 32.0575C136.316 32.2122 135.986 32.3587 135.628 32.4971C135.278 32.6355 134.887 32.7576 134.456 32.8634C134.033 32.9611 133.561 33.0384 133.04 33.0954C132.527 33.1605 131.961 33.193 131.342 33.193C129.861 33.193 128.583 33.0221 127.509 32.6802C126.434 32.3302 125.543 31.8662 124.835 31.2883C124.135 30.7022 123.614 30.0266 123.272 29.2614C122.938 28.4963 122.771 27.6904 122.771 26.8439ZM133.052 25.8182C133.052 24.76 132.918 23.9908 132.649 23.5106C132.388 23.0303 131.998 22.7902 131.477 22.7902C131.208 22.7902 130.96 22.8553 130.732 22.9855C130.504 23.1158 130.309 23.3193 130.146 23.596C129.983 23.8728 129.853 24.2309 129.755 24.6705C129.657 25.1019 129.605 25.6269 129.596 26.2456L133.052 25.8182Z" fill="white"/>
<path d="M141.269 20.861H147.118L147.704 22.6192C148.168 22.2774 148.603 21.9843 149.01 21.7401C149.425 21.4878 149.824 21.2802 150.207 21.1174C150.598 20.9465 150.972 20.8244 151.33 20.7511C151.696 20.6697 152.059 20.629 152.417 20.629C152.938 20.629 153.406 20.7023 153.821 20.8488C154.244 20.9953 154.602 21.2029 154.895 21.4715C155.197 21.7401 155.425 22.0616 155.579 22.4361C155.742 22.8024 155.823 23.2094 155.823 23.6571C155.823 24.1048 155.726 24.5158 155.53 24.8903C155.343 25.2647 155.066 25.5903 154.7 25.8671C154.334 26.1357 153.882 26.3473 153.345 26.502C152.816 26.6485 152.209 26.7218 151.525 26.7218L149.377 23.8524C149.14 23.8524 148.884 23.9013 148.607 23.999C148.331 24.0966 148.095 24.2513 147.899 24.4629V32.9611H141.269V20.861Z" fill="white"/>
<path d="M158.339 14.8171H167.069C168.68 14.8089 170.068 14.9514 171.232 15.2444C172.405 15.5293 173.369 15.9404 174.126 16.4776C174.883 17.0149 175.441 17.662 175.799 18.419C176.165 19.1679 176.348 20.0022 176.348 20.922C176.348 21.7279 176.177 22.5012 175.836 23.2419C175.502 23.9745 174.981 24.6217 174.273 25.1833C173.573 25.745 172.677 26.1927 171.586 26.5264C170.504 26.8602 169.214 27.027 167.716 27.027H165.396V32.9611H158.339V14.8171ZM165.396 24.3653C165.958 24.3571 166.458 24.2716 166.898 24.1088C167.337 23.9379 167.708 23.7059 168.009 23.4129C168.31 23.1117 168.538 22.7535 168.693 22.3384C168.855 21.9151 168.937 21.443 168.937 20.922C168.937 20.4092 168.855 19.9453 168.693 19.5301C168.53 19.115 168.294 18.7609 167.985 18.4678C167.683 18.1667 167.313 17.9306 166.873 17.7597C166.442 17.5887 165.95 17.4951 165.396 17.4788V24.3653Z" fill="white"/>
<path d="M177.862 29.1516C177.862 28.5655 177.993 28.0201 178.253 27.5154C178.514 27.0107 178.888 26.5712 179.376 26.1967C179.865 25.8223 180.455 25.5293 181.147 25.3176C181.839 25.0978 182.612 24.988 183.467 24.988C184.321 24.988 185.119 25.0897 185.86 25.2932C186.609 25.4886 187.236 25.7409 187.74 26.0502V25.9525C187.74 25.3827 187.675 24.8984 187.545 24.4996C187.423 24.1007 187.231 23.7751 186.971 23.5228C186.711 23.2704 186.377 23.0873 185.97 22.9733C185.571 22.8594 185.099 22.8024 184.553 22.8024C184.057 22.8024 183.544 22.8471 183.015 22.9367C182.486 23.0181 181.997 23.1402 181.55 23.303L180.658 21.6546C181.546 21.2883 182.461 21.0279 183.406 20.8732C184.358 20.7104 185.339 20.629 186.348 20.629C187.643 20.629 188.786 20.7552 189.779 21.0075C190.78 21.2517 191.619 21.6221 192.295 22.1186C192.978 22.607 193.495 23.2257 193.845 23.9745C194.195 24.7153 194.37 25.5862 194.37 26.5875V32.9611H188.18L187.765 31.7889C187.52 31.9761 187.231 32.1552 186.898 32.3261C186.564 32.4971 186.198 32.6477 185.799 32.7779C185.4 32.9081 184.977 33.0099 184.529 33.0832C184.081 33.1564 183.613 33.193 183.125 33.193C182.327 33.193 181.603 33.0913 180.951 32.8878C180.308 32.6762 179.759 32.3913 179.303 32.0331C178.847 31.6749 178.493 31.2517 178.241 30.7633C177.989 30.2667 177.862 29.7295 177.862 29.1516ZM184.7 28.8951C184.7 29.3347 184.842 29.6929 185.127 29.9696C185.412 30.2382 185.795 30.3725 186.275 30.3725C186.535 30.3725 186.792 30.3318 187.044 30.2504C187.297 30.1609 187.529 30.0307 187.74 29.8597V27.7962C187.333 27.552 186.886 27.4299 186.397 27.4299C185.844 27.4299 185.42 27.5683 185.127 27.8451C184.842 28.1137 184.7 28.4637 184.7 28.8951Z" fill="white"/>
<path d="M197.679 20.861H203.528L204.114 22.6192C204.578 22.2774 205.013 21.9843 205.42 21.7401C205.835 21.4878 206.234 21.2802 206.617 21.1174C207.008 20.9465 207.382 20.8244 207.74 20.7511C208.106 20.6697 208.469 20.629 208.827 20.629C209.348 20.629 209.816 20.7023 210.231 20.8488C210.654 20.9953 211.012 21.2029 211.305 21.4715C211.607 21.7401 211.835 22.0616 211.989 22.4361C212.152 22.8024 212.233 23.2094 212.233 23.6571C212.233 24.1048 212.136 24.5158 211.94 24.8903C211.753 25.2647 211.476 25.5903 211.11 25.8671C210.744 26.1357 210.292 26.3473 209.755 26.502C209.226 26.6485 208.619 26.7218 207.935 26.7218L205.787 23.8524C205.55 23.8524 205.294 23.9013 205.017 23.999C204.741 24.0966 204.504 24.2513 204.309 24.4629V32.9611H197.679V20.861Z" fill="white"/>
<path d="M214.834 22.8756H213.467V20.861H214.834V16.8317H221.464V20.861H224.651L223.405 22.8756H221.464V28.3579C221.464 29.1882 221.647 29.8272 222.014 30.2749C222.388 30.7226 222.921 30.9464 223.613 30.9464L222.856 32.6192C222.433 32.7983 221.981 32.9366 221.501 33.0343C221.029 33.1401 220.479 33.193 219.852 33.193C218.973 33.193 218.216 33.0832 217.581 32.8634C216.946 32.6355 216.425 32.3139 216.018 31.8988C215.611 31.4837 215.31 30.9749 215.115 30.3725C214.928 29.7702 214.834 29.0905 214.834 28.3335V22.8756Z" fill="white"/>
<path d="M224.944 20.861H231.879L234.81 28.3579L237.74 20.861H241L235.799 33.2053C235.465 33.9867 235.107 34.6786 234.724 35.2809C234.342 35.8833 233.898 36.4124 233.393 36.8682C232.897 37.3322 232.327 37.7351 231.684 38.077C231.041 38.4189 230.3 38.7242 229.462 38.9928L228.607 36.9903C229.258 36.7624 229.824 36.5019 230.304 36.2089C230.784 35.924 231.191 35.6228 231.525 35.3054C231.859 34.996 232.127 34.6827 232.331 34.3652C232.543 34.0477 232.705 33.7466 232.819 33.4617L233.015 32.9488H230.06L224.944 20.861Z" fill="white"/>
</svg>
