<svg width="297" height="54" viewBox="0 0 297 54" fill="none" xmlns="http://www.w3.org/2000/svg">
<path d="M26 51.8333C39.3469 51.8333 50.1667 40.6404 50.1667 26.8333C50.1667 13.0262 39.3469 1.83333 26 1.83333C12.6531 1.83333 1.83334 13.0262 1.83334 26.8333C1.83334 40.6404 12.6531 51.8333 26 51.8333Z" stroke="white" stroke-width="3"/>
<path d="M26 41.8333C34.0081 41.8333 40.5 35.1176 40.5 26.8333C40.5 18.5491 34.0081 11.8333 26 11.8333C17.9919 11.8333 11.5 18.5491 11.5 26.8333C11.5 35.1176 17.9919 41.8333 26 41.8333Z" stroke="white" stroke-width="3"/>
<path d="M26 31.8333C28.6694 31.8333 30.8333 29.5948 30.8333 26.8333C30.8333 24.0719 28.6694 21.8333 26 21.8333C23.3306 21.8333 21.1667 24.0719 21.1667 26.8333C21.1667 29.5948 23.3306 31.8333 26 31.8333Z" stroke="white" stroke-width="3"/>
<path d="M26 26.8333L42.7556 9.5" stroke="white" stroke-width="3" stroke-linecap="round"/>
<path d="M60 12.828H70.7878C72.7794 12.8177 74.4944 12.9978 75.9328 13.3682C77.3812 13.7283 78.5731 14.2479 79.5086 14.9269C80.444 15.6059 81.1331 16.4239 81.5756 17.3807C82.0283 18.3273 82.2546 19.3818 82.2546 20.5445C82.2546 21.563 82.0434 22.5404 81.6209 23.4767C81.2085 24.4027 80.5647 25.2206 79.6896 25.9305C78.8246 26.6404 77.7182 27.2063 76.3703 27.6281C75.0325 28.05 73.4382 28.2609 71.5875 28.2609H68.7208V35.7612H60V12.828ZM68.7208 24.8965C69.4148 24.8862 70.0334 24.7782 70.5766 24.5724C71.1197 24.3564 71.5774 24.0631 71.9496 23.6928C72.3217 23.3121 72.6034 22.8594 72.7945 22.3347C72.9957 21.7997 73.0963 21.2029 73.0963 20.5445C73.0963 19.8963 72.9957 19.3098 72.7945 18.7851C72.5933 18.2604 72.3016 17.8128 71.9194 17.4425C71.5472 17.0618 71.0896 16.7634 70.5464 16.5474C70.0133 16.3313 69.4048 16.213 68.7208 16.1924V24.8965Z" fill="white"/>
<path d="M85.1062 10.2816H93.2989V35.7612H85.1062V10.2816Z" fill="white"/>
<path d="M96.5579 30.9462C96.5579 30.2054 96.7188 29.5161 97.0407 28.8782C97.3626 28.2403 97.8252 27.6847 98.4288 27.2114C99.0323 26.7382 99.7615 26.3678 100.617 26.1003C101.471 25.8225 102.427 25.6836 103.483 25.6836C104.539 25.6836 105.525 25.8122 106.44 26.0694C107.366 26.3163 108.14 26.6353 108.764 27.0263V26.9028C108.764 26.1826 108.683 25.5704 108.523 25.0663C108.372 24.5621 108.135 24.1506 107.813 23.8317C107.492 23.5127 107.079 23.2812 106.576 23.1372C106.083 22.9931 105.5 22.9211 104.826 22.9211C104.212 22.9211 103.579 22.9777 102.925 23.0909C102.271 23.1938 101.668 23.3481 101.114 23.5539L100.013 21.4704C101.109 21.0074 102.241 20.6782 103.408 20.4827C104.585 20.277 105.797 20.1741 107.044 20.1741C108.643 20.1741 110.056 20.3335 111.284 20.6525C112.521 20.9611 113.557 21.4293 114.392 22.0569C115.237 22.6742 115.875 23.4561 116.308 24.4027C116.74 25.3389 116.957 26.4398 116.957 27.7053V35.7612H109.307L108.794 34.2797C108.492 34.5163 108.135 34.7427 107.723 34.9587C107.31 35.1748 106.858 35.3651 106.365 35.5297C105.872 35.6944 105.349 35.823 104.796 35.9156C104.243 36.0082 103.664 36.0545 103.061 36.0545C102.075 36.0545 101.18 35.9259 100.375 35.6686C99.5805 35.4011 98.9015 35.041 98.3382 34.5883C97.775 34.1356 97.3374 33.6006 97.0256 32.9833C96.7138 32.3557 96.5579 31.6767 96.5579 30.9462ZM105.007 30.6221C105.007 31.1777 105.183 31.6304 105.535 31.9802C105.887 32.3197 106.36 32.4895 106.953 32.4895C107.275 32.4895 107.592 32.438 107.904 32.3352C108.216 32.222 108.502 32.0574 108.764 31.8413V29.2331C108.261 28.9245 107.708 28.7702 107.104 28.7702C106.42 28.7702 105.897 28.9451 105.535 29.2949C105.183 29.6344 105.007 30.0768 105.007 30.6221Z" fill="white"/>
<path d="M121.905 23.0137H120.216V20.4673H121.905V15.3745H130.098V20.4673H134.036L132.497 23.0137H130.098V29.9431C130.098 30.9925 130.324 31.8001 130.777 32.366C131.24 32.9319 131.899 33.2148 132.754 33.2148L131.818 35.3291C131.295 35.5555 130.737 35.7304 130.143 35.8538C129.56 35.9876 128.881 36.0545 128.107 36.0545C127.02 36.0545 126.085 35.9156 125.3 35.6378C124.516 35.3497 123.872 34.9433 123.369 34.4186C122.866 33.8939 122.494 33.2508 122.252 32.4895C122.021 31.7281 121.905 30.869 121.905 29.9122V23.0137Z" fill="white"/>
<path d="M137.325 23.0137H135.635V20.4673H137.325V15.3745H145.518V20.4673H149.456L147.917 23.0137H145.518V29.9431C145.518 30.9925 145.744 31.8001 146.197 32.366C146.66 32.9319 147.318 33.2148 148.173 33.2148L147.238 35.3291C146.715 35.5555 146.157 35.7304 145.563 35.8538C144.98 35.9876 144.301 36.0545 143.526 36.0545C142.44 36.0545 141.505 35.9156 140.72 35.6378C139.935 35.3497 139.292 34.9433 138.789 34.4186C138.286 33.8939 137.914 33.2508 137.672 32.4895C137.441 31.7281 137.325 30.869 137.325 29.9122V23.0137Z" fill="white"/>
<path d="M150.904 28.0294C150.904 27.1446 151.04 26.3369 151.312 25.6064C151.583 24.8759 151.955 24.2226 152.428 23.6465C152.911 23.06 153.479 22.5507 154.133 22.1186C154.787 21.6865 155.496 21.3264 156.261 21.0383C157.025 20.7502 157.825 20.5342 158.659 20.3901C159.494 20.2461 160.339 20.1741 161.194 20.1741C162.321 20.1741 163.342 20.2924 164.257 20.529C165.182 20.7554 166.002 21.0692 166.716 21.4704C167.441 21.8717 168.064 22.3398 168.587 22.8748C169.12 23.4098 169.558 23.9808 169.9 24.5879C170.252 25.1846 170.508 25.8019 170.669 26.4398C170.84 27.0777 170.926 27.7002 170.926 28.3072L159.519 29.7116C159.741 30.8536 160.183 31.7384 160.847 32.366C161.511 32.9936 162.441 33.3074 163.638 33.3074C164.292 33.3074 164.901 33.2251 165.464 33.0605C166.037 32.8959 166.485 32.6952 166.807 32.4586L168.014 34.6192C167.642 34.8147 167.234 34.9999 166.792 35.1748C166.359 35.3497 165.876 35.504 165.343 35.6378C164.82 35.7612 164.237 35.859 163.593 35.931C162.96 36.0133 162.26 36.0545 161.496 36.0545C159.665 36.0545 158.086 35.8384 156.758 35.4063C155.431 34.9639 154.329 34.3774 153.454 33.6469C152.589 32.9062 151.945 32.0522 151.523 31.0851C151.111 30.118 150.904 29.0994 150.904 28.0294ZM163.608 26.733C163.608 25.3955 163.442 24.4232 163.11 23.8162C162.789 23.2092 162.306 22.9057 161.662 22.9057C161.33 22.9057 161.023 22.988 160.742 23.1526C160.46 23.3172 160.219 23.5744 160.017 23.9243C159.816 24.2741 159.655 24.7268 159.535 25.2823C159.414 25.8276 159.348 26.4912 159.338 27.2732L163.608 26.733Z" fill="white"/>
<path d="M173.762 20.4673H180.989L181.714 22.6896C182.287 22.2575 182.825 21.8871 183.328 21.5785C183.841 21.2595 184.334 20.9972 184.807 20.7914C185.29 20.5753 185.752 20.421 186.195 20.3284C186.647 20.2255 187.095 20.1741 187.538 20.1741C188.181 20.1741 188.76 20.2667 189.273 20.4519C189.796 20.6371 190.238 20.8994 190.6 21.2389C190.973 21.5785 191.254 21.9849 191.445 22.4581C191.647 22.9211 191.747 23.4355 191.747 24.0014C191.747 24.5673 191.626 25.0869 191.385 25.5601C191.154 26.0334 190.812 26.4449 190.359 26.7948C189.906 27.1343 189.348 27.4018 188.684 27.5973C188.03 27.7825 187.281 27.8751 186.436 27.8751L183.781 24.2483C183.489 24.2483 183.172 24.3101 182.83 24.4335C182.488 24.557 182.197 24.7525 181.955 25.02V35.7612H173.762V20.4673Z" fill="white"/>
<path d="M194.855 12.828H205.643C207.635 12.8177 209.35 12.9978 210.788 13.3682C212.236 13.7283 213.428 14.2479 214.364 14.9269C215.299 15.6059 215.988 16.4239 216.431 17.3807C216.883 18.3273 217.11 19.3818 217.11 20.5445C217.11 21.563 216.899 22.5404 216.476 23.4767C216.064 24.4027 215.42 25.2206 214.545 25.9305C213.68 26.6404 212.573 27.2063 211.226 27.6281C209.888 28.05 208.293 28.2609 206.443 28.2609H203.576V35.7612H194.855V12.828ZM203.576 24.8965C204.27 24.8862 204.889 24.7782 205.432 24.5724C205.975 24.3564 206.433 24.0631 206.805 23.6928C207.177 23.3121 207.459 22.8594 207.65 22.3347C207.851 21.7997 207.951 21.2029 207.951 20.5445C207.951 19.8963 207.851 19.3098 207.65 18.7851C207.449 18.2604 207.157 17.8128 206.775 17.4425C206.402 17.0618 205.945 16.7634 205.402 16.5474C204.869 16.3313 204.26 16.213 203.576 16.1924V24.8965Z" fill="white"/>
<path d="M218.981 30.9462C218.981 30.2054 219.142 29.5161 219.464 28.8782C219.785 28.2403 220.248 27.6847 220.852 27.2114C221.455 26.7382 222.184 26.3678 223.039 26.1003C223.894 25.8225 224.85 25.6836 225.906 25.6836C226.962 25.6836 227.948 25.8122 228.863 26.0694C229.789 26.3163 230.563 26.6353 231.187 27.0263V26.9028C231.187 26.1826 231.106 25.5704 230.945 25.0663C230.794 24.5621 230.558 24.1506 230.236 23.8317C229.914 23.5127 229.502 23.2812 228.999 23.1372C228.506 22.9931 227.923 22.9211 227.249 22.9211C226.635 22.9211 226.002 22.9777 225.348 23.0909C224.694 23.1938 224.09 23.3481 223.537 23.5539L222.436 21.4704C223.532 21.0074 224.664 20.6782 225.831 20.4827C227.007 20.277 228.22 20.1741 229.467 20.1741C231.066 20.1741 232.479 20.3335 233.706 20.6525C234.944 20.9611 235.98 21.4293 236.815 22.0569C237.659 22.6742 238.298 23.4561 238.731 24.4027C239.163 25.3389 239.379 26.4398 239.379 27.7053V35.7612H231.73L231.217 34.2797C230.915 34.5163 230.558 34.7427 230.146 34.9587C229.733 35.1748 229.281 35.3651 228.788 35.5297C228.295 35.6944 227.772 35.823 227.219 35.9156C226.665 36.0082 226.087 36.0545 225.484 36.0545C224.498 36.0545 223.603 35.9259 222.798 35.6686C222.003 35.4011 221.324 35.041 220.761 34.5883C220.198 34.1356 219.76 33.6006 219.448 32.9833C219.137 32.3557 218.981 31.6767 218.981 30.9462ZM227.43 30.6221C227.43 31.1777 227.606 31.6304 227.958 31.9802C228.31 32.3197 228.783 32.4895 229.376 32.4895C229.698 32.4895 230.015 32.438 230.327 32.3352C230.639 32.222 230.925 32.0574 231.187 31.8413V29.2331C230.684 28.9245 230.131 28.7702 229.527 28.7702C228.843 28.7702 228.32 28.9451 227.958 29.2949C227.606 29.6344 227.43 30.0768 227.43 30.6221Z" fill="white"/>
<path d="M243.468 20.4673H250.695L251.42 22.6896C251.993 22.2575 252.531 21.8871 253.034 21.5785C253.547 21.2595 254.04 20.9972 254.513 20.7914C254.995 20.5753 255.458 20.421 255.901 20.3284C256.353 20.2255 256.801 20.1741 257.244 20.1741C257.887 20.1741 258.466 20.2667 258.979 20.4519C259.502 20.6371 259.944 20.8994 260.306 21.2389C260.679 21.5785 260.96 21.9849 261.151 22.4581C261.352 22.9211 261.453 23.4355 261.453 24.0014C261.453 24.5673 261.332 25.0869 261.091 25.5601C260.86 26.0334 260.518 26.4449 260.065 26.7948C259.612 27.1343 259.054 27.4018 258.39 27.5973C257.736 27.7825 256.987 27.8751 256.142 27.8751L253.487 24.2483C253.195 24.2483 252.878 24.3101 252.536 24.4335C252.194 24.557 251.902 24.7525 251.661 25.02V35.7612H243.468V20.4673Z" fill="white"/>
<path d="M264.667 23.0137H262.977V20.4673H264.667V15.3745H272.859V20.4673H276.797L275.258 23.0137H272.859V29.9431C272.859 30.9925 273.086 31.8001 273.538 32.366C274.001 32.9319 274.66 33.2148 275.515 33.2148L274.579 35.3291C274.056 35.5555 273.498 35.7304 272.905 35.8538C272.321 35.9876 271.642 36.0545 270.868 36.0545C269.782 36.0545 268.846 35.9156 268.061 35.6378C267.277 35.3497 266.633 34.9433 266.13 34.4186C265.627 33.8939 265.255 33.2508 265.014 32.4895C264.782 31.7281 264.667 30.869 264.667 29.9122V23.0137Z" fill="white"/>
<path d="M277.159 20.4673H285.729L289.35 29.9431L292.972 20.4673H297L290.573 36.0699C290.16 37.0576 289.718 37.9321 289.245 38.6935C288.772 39.4548 288.224 40.1236 287.6 40.6998C286.987 41.2862 286.283 41.7955 285.488 42.2276C284.693 42.6597 283.778 43.0455 282.742 43.3851L281.686 40.8541C282.491 40.566 283.19 40.2368 283.783 39.8664C284.376 39.5063 284.879 39.1256 285.292 38.7243C285.704 38.3334 286.036 37.9373 286.288 37.536C286.549 37.1348 286.75 36.7541 286.891 36.394L287.133 35.7458H283.481L277.159 20.4673Z" fill="white"/>
</svg>
